HIERARCHY
	ROOT Hips
	{
		OFFSET 0 0 0 
		CHANNELS 6 Xposition Yposition Zposition Zrotation Xrotation Yrotation
		JOINT LHipJoint
		{
			OFFSET 0 0 0 
			CHANNELS 3 Zrotation Xrotation Yrotation
			JOINT LeftUpLeg
			{
				OFFSET 0.0783705 -0.0912565 0.0336595 
				CHANNELS 3 Zrotation Xrotation Yrotation
				JOINT LeftLeg
				{
					OFFSET 0.117854 -0.323802 0 
					CHANNELS 3 Zrotation Xrotation Yrotation
					JOINT LeftFoot
					{
						OFFSET 0.135318 -0.371784 0 
						CHANNELS 3 Zrotation Xrotation Yrotation
						JOINT LeftToeBase
						{
							OFFSET 0.0102135 -0.028061 0.104268 
							CHANNELS 3 Zrotation Xrotation Yrotation
							End Site
							{
								OFFSET 0 -0 0.0542675
							}
						}
					}
				}
			}
		}
		JOINT RHipJoint
		{
			OFFSET 0 0 0 
			CHANNELS 3 Zrotation Xrotation Yrotation
			JOINT RightUpLeg
			{
				OFFSET -0.075711 -0.0912565 0.0336595 
				CHANNELS 3 Zrotation Xrotation Yrotation
				JOINT RightLeg
				{
					OFFSET -0.124412 -0.341819 0 
					CHANNELS 3 Zrotation Xrotation Yrotation
					JOINT RightFoot
					{
						OFFSET -0.135017 -0.370955 0 
						CHANNELS 3 Zrotation Xrotation Yrotation
						JOINT RightToeBase
						{
							OFFSET -0.009875 -0.0271315 0.111076 
							CHANNELS 3 Zrotation Xrotation Yrotation
							End Site
							{
								OFFSET -0 -0 0.0574575
							}
						}
					}
				}
			}
		}
		JOINT LowerBack
		{
			OFFSET 0 0 0 
			CHANNELS 3 Zrotation Xrotation Yrotation
			JOINT Spine
			{
				OFFSET -0.0007835 0.106437 -0.007921 
				CHANNELS 3 Zrotation Xrotation Yrotation
				JOINT Spine1
				{
					OFFSET 0.003049 0.106663 -0.0005215 
					CHANNELS 3 Zrotation Xrotation Yrotation
					JOINT Neck
					{
						OFFSET 0 0 0 
						CHANNELS 3 Zrotation Xrotation Yrotation
						JOINT Neck1
						{
							OFFSET -0.00252 0.089216 0.0066935 
							CHANNELS 3 Zrotation Xrotation Yrotation
							JOINT Head
							{
								OFFSET -9e-005 0.08844 -0.0166515 
								CHANNELS 3 Zrotation Xrotation Yrotation
								End Site
								{
									OFFSET 0.000367 0.0906245 -0.0063595
								}
							}
						}
					}
					JOINT LeftShoulder
					{
						OFFSET 0 0 0 
						CHANNELS 3 Zrotation Xrotation Yrotation
						JOINT LeftArm
						{
							OFFSET 0.1861 0.047094 -0.0271585 
							CHANNELS 3 Zrotation Xrotation Yrotation
							JOINT LeftForeArm
							{
								OFFSET 0.257301 -0 0 
								CHANNELS 3 Zrotation Xrotation Yrotation
								JOINT LeftHand
								{
									OFFSET 0.182226 -0 -0 
									CHANNELS 3 Zrotation Xrotation Yrotation
									JOINT LeftFingerBase
									{
										OFFSET 0 0 0 
										CHANNELS 3 Zrotation Xrotation Yrotation
										JOINT LFingers
										{
											OFFSET 0.028114 -0 0 
											CHANNELS 3 Zrotation Xrotation Yrotation
											End Site
											{
												OFFSET 0.022666 -0 0
											}
										}
									}
									JOINT LThumb
									{
										OFFSET 0 0 0 
										CHANNELS 3 Zrotation Xrotation Yrotation
										End Site
										{
											OFFSET 0.0230125 -0 0.0230125
										}
									}
								}
							}
						}
					}
					JOINT RightShoulder
					{
						OFFSET 0 0 0 
						CHANNELS 3 Zrotation Xrotation Yrotation
						JOINT RightArm
						{
							OFFSET -0.165127 0.0613395 -0.0234705 
							CHANNELS 3 Zrotation Xrotation Yrotation
							JOINT RightForeArm
							{
								OFFSET -0.266957 -0 0 
								CHANNELS 3 Zrotation Xrotation Yrotation
								JOINT RightHand
								{
									OFFSET -0.178239 -0 -0 
									CHANNELS 3 Zrotation Xrotation Yrotation
									JOINT RightFingerBase
									{
										OFFSET 0 0 0 
										CHANNELS 3 Zrotation Xrotation Yrotation
										JOINT RFingers
										{
											OFFSET -0.0428735 -0 0 
											CHANNELS 3 Zrotation Xrotation Yrotation
											End Site
											{
												OFFSET -0.034566 -0 0
											}
										}
									}
									JOINT RThumb
									{
										OFFSET 0 0 0 
										CHANNELS 3 Zrotation Xrotation Yrotation
										End Site
										{
											OFFSET -0.0350935 -0 0.0350935
										}
									}
								}
							}
						}
					}
				}
			}
		}
	}
MOTION
Frames:	5
Frame Time:	0.0166667
-0.43353 0.875175 -0.70635 1.44075 6.3785 -16.4928 -0 0 -0 -21.4323 -14.5505 -7.21136 -3.43095 30.6702 12.4656 1.31004 -18.8037 1.124 -0.614908 -13.7324 -5.10294 -0 0 -0 26.926 -17.322 11.3085 5.17416 36.4813 -15.6131 -2.10656 -21.0475 -2.74378 0.451602 11.809 -4.36424 -1.48634 5.26143 -1.53356 3.44526 1.30225 -2.06973 4.52896 -1.42317 -1.03632 -3.6679 -14.2658 0.730012 -3.86887 28.074 3.00833 0.0282092 11.5205 0.440066 -0 0 -0 -89.1743 26.7743 -1.63134 18.3709 -5.49956 -33.0853 -0 2.8458 -0 9.95043 4.12298 22.2853 -7.125 0 0 -15.1386 -1.85308 51.816 -0 0 -0 84.9702 27.6313 -7.45903 -26.5138 -12.7216 50.6433 -0 28.4888 -0 173.643 9.0126 -54.5789 7.125 0 -0 170.32 -11.5226 -175.496 
-0.4349 0.87487 -0.70536 1.19456 6.39868 -16.2471 -0 0 -0 -21.1047 -15.3105 -7.14763 -3.71247 31.7354 13.009 1.1981 -18.6382 0.797845 -0.660433 -14.2181 -5.29143 -0 0 -0 27.178 -17.2093 11.0168 5.12339 36.3347 -15.5275 -2.11192 -21.0648 -2.75236 0.44126 11.6759 -4.31362 -1.0381 5.36199 -1.36517 3.33116 1.32503 -1.82239 4.14357 -1.49671 -0.912211 -2.66344 -13.7996 0.906981 -4.47914 28.3788 3.16338 -0.33452 11.564 0.534347 -0 0 -0 -89.1139 27.6468 -1.33754 18.3928 -5.51379 -33.1281 -0 2.7833 -0 9.88641 3.98457 21.7375 -7.125 0 0 -15.262 -1.71581 51.2622 -0 0 -0 85.5 26.9255 -7.63367 -26.5032 -12.7088 50.6172 -0 27.8625 -0 173.843 8.70399 -54.5155 7.125 0 -0 170.111 -11.812 -175.42 
-0.4362 0.87447 -0.704035 0.821654 6.3309 -15.953 -0 0 -0 -20.6631 -15.8558 -6.91064 -4.03246 32.8789 13.6077 1.06281 -18.6494 0.315886 -0.715247 -14.7799 -5.51056 -0 0 -0 27.4665 -16.9758 10.6361 5.07008 36.1795 -15.4375 -2.11891 -21.138 -2.73741 0.456137 11.8672 -4.38643 -0.461999 5.3878 -1.48536 3.54911 1.88939 -1.96487 4.03268 -0.930559 -0.998832 -4.19954 -13.293 1.1196 -3.39852 27.4831 3.47868 0.380225 11.0751 0.686995 -0 0 -0 -89.0647 27.8047 -2.29906 18.3542 -5.48873 -33.0524 -0 2.9763 -0 10.2034 4.14182 21.8645 -7.125 0 0 -14.9198 -1.72456 51.4442 -0 0 -0 84.6224 27.317 -6.52986 -26.4412 -12.6354 50.4659 -0 27.136 -0 173.826 8.78027 -54.6734 7.125 0 -0 170.123 -11.7299 -175.58 
-0.437355 0.874125 -0.702895 0.680777 6.15783 -15.2549 -0 0 -0 -20.4747 -16.5359 -6.71325 -4.38303 34.0583 14.2433 0.768613 -18.2929 -0.594125 -0.653321 -14.1437 -5.26246 -0 0 -0 27.3884 -16.832 9.89993 5.06481 36.164 -15.4284 -2.22187 -21.31 -2.97712 0.376265 10.797 -3.98017 -0.13613 5.58188 -1.65857 3.60474 2.02284 -2.17856 3.92151 -0.895033 -1.10684 -4.31947 -12.4014 1.37816 -3.62838 27.3505 3.87008 0.39663 10.8459 0.837868 -0 0 -0 -89.3673 28.1394 -2.22704 18.4393 -5.54411 -33.2195 -0 2.2155 -0 10.364 4.2281 21.956 -7.125 0 0 -14.7433 -1.73511 51.5636 -0 0 -0 84.5039 27.4005 -6.64907 -26.3313 -12.506 50.1987 -0 26.1426 -0 173.966 8.68582 -55.0081 7.125 0 -0 169.959 -11.7911 -175.91 
-0.438935 0.87339 -0.701855 0.414104 5.91764 -14.8504 -0 0 -0 -19.9891 -17.3028 -6.10485 -4.81499 35.419 15.0013 0.465915 -17.834 -1.53067 -0.635591 -13.9557 -5.18948 -0 0 -0 27.6691 -16.4856 9.77024 5.09946 36.2649 -15.487 -2.39145 -21.499 -3.41452 0.358306 10.5404 -3.88322 0.269911 5.81522 -1.64296 3.55428 2.24174 -2.13834 3.63895 -0.819452 -1.08751 -3.64144 -11.2465 2.15898 -4.74794 26.8682 5.02369 0.107255 10.4657 1.33227 -0 0 -0 -89.3255 28.7876 -2.18757 18.5053 -5.58718 -33.3492 -0 1.477 -0 9.88968 4.18699 22.7229 -7.125 0 0 -15.1545 -1.97142 52.2388 -0 0 -0 84.5637 27.3857 -6.48882 -26.1962 -12.3485 49.8721 -0 24.9203 -0 174.271 8.33932 -55.3282 7.125 0 -0 169.612 -12.0802 -176.217 
